<svg xmlns="http://www.w3.org/2000/svg" version="1.1" xmlns:xlink="http://www.w3.org/1999/xlink" width="1000" height="1000"><style>
    #light-icon {
      display: inline;
    }
    #dark-icon {
      display: none;
    }

    @media (prefers-color-scheme: dark) {
      #light-icon {
        display: none;
      }
      #dark-icon {
        display: inline;
      }
    }
  </style><g id="light-icon"><svg xmlns="http://www.w3.org/2000/svg" version="1.1" xmlns:xlink="http://www.w3.org/1999/xlink" width="1000" height="1000"><g clip-path="url(#SvgjsClipPath1083)"><rect width="1000" height="1000" fill="#fdfdfd"></rect><g transform="matrix(20,0,0,20,150,150)"><svg xmlns="http://www.w3.org/2000/svg" version="1.1" xmlns:xlink="http://www.w3.org/1999/xlink" width="35" height="35"><svg width="35" height="35" viewBox="0 0 35 35" fill="none" xmlns="http://www.w3.org/2000/svg">
<path d="M34.837 31.2487C34.0875 30.2715 33.5532 29.1345 32.951 28.0639C32.3609 27.0149 31.7708 25.9657 31.1807 24.9168C29.0857 21.1926 26.9985 17.464 24.8955 13.7442C22.7791 10.0005 20.7049 6.22436 18.5146 2.52276C18.2774 2.12185 17.9138 1.97576 17.5602 2.00322C17.2066 1.97576 16.843 2.12185 16.6058 2.52276C14.4152 6.22459 12.3412 10.0007 10.2248 13.7442C8.12188 17.464 0 31.3779 0 31.8135C0 32.4348 0.549972 33.0227 1.20168 32.9993C9.41412 32.7042 5.3054 32.9172 14.8847 32.8598C16.0991 32.8526 29.4929 32.7672 30.7069 32.8037C31.2906 32.8213 33.9821 32.8967 34.3229 32.7549C34.8505 32.5354 35.2317 31.7633 34.837 31.2487ZM8.54799 21.0096C8.56327 20.9831 8.57856 20.9563 8.59384 20.9297C8.64767 20.8941 8.70151 20.8593 8.75557 20.8255C9.37215 20.4401 9.99809 20.0586 10.6548 19.743C11.7283 19.227 12.8791 18.8392 14.0455 18.5621C13.315 19.37 12.8673 20.4077 12.8709 21.5542C12.8736 22.4113 13.1821 23.2557 13.6978 23.9292C12.9925 23.7478 12.2995 23.5067 11.633 23.2397C10.9509 22.9665 10.3056 22.586 9.68694 22.1876C9.2476 21.9046 8.81396 21.5962 8.34634 21.3606C8.41363 21.2435 8.48069 21.1265 8.54799 21.0096ZM21.2223 22.966C20.897 23.4531 20.4782 23.8248 20.003 24.0962C19.7836 24.1329 19.5637 24.1649 19.344 24.1906C18.68 24.268 18.0305 24.3502 17.3601 24.3567C16.6927 24.3632 16.0531 24.2928 15.3904 24.2318C15.3411 24.2273 15.2918 24.2216 15.2428 24.2162C14.4303 23.7142 13.8449 22.8969 13.7658 21.8952C13.6378 20.276 14.662 18.8248 16.1621 18.2255C16.1835 18.217 16.2054 18.2091 16.2271 18.2008C17.2157 18.1209 18.2201 18.1479 19.1941 18.2535C19.4606 18.2823 19.7204 18.3259 19.9782 18.3766C20.258 18.5272 20.5199 18.7127 20.7549 18.9362C21.8913 20.0174 22.0909 21.6656 21.2223 22.966ZM22.0138 18.8367C22.5042 18.9729 22.9995 19.1476 23.426 19.3603C24.1512 19.7218 24.8917 20.0124 25.6013 20.4145C25.9275 20.599 26.2485 20.792 26.5632 20.9939C26.5662 20.999 26.5694 21.0045 26.5724 21.0096C26.6004 21.0587 26.6287 21.1078 26.657 21.1566C25.2418 22.2569 23.5919 23.1166 21.8651 23.6521C22.9164 22.2097 23.0538 20.3084 22.0138 18.8367ZM14.9134 9.88343C15.7905 8.34169 16.6872 6.80941 17.5602 5.26475C18.4329 6.80941 19.3299 8.34147 20.207 9.88343C21.8767 12.8186 23.5542 15.7492 25.235 18.678C25.0356 18.5679 24.8358 18.4585 24.6369 18.3467C24.3034 18.1587 23.94 18.0621 23.5901 17.9115C23.2064 17.7463 22.82 17.6112 22.4178 17.4962C21.6326 17.2716 20.8664 17.0915 20.058 16.9654C16.9187 16.4756 13.5965 16.8887 10.7061 18.2082C10.4527 18.3239 10.1991 18.4446 9.94745 18.5702C11.6074 15.6769 13.2642 12.7823 14.9134 9.88343ZM31.2528 30.7217C30.1606 30.6864 29.0672 30.6796 27.975 30.6488C25.8201 30.5878 23.6651 30.5423 21.5092 30.5236C17.1995 30.4865 12.886 30.4473 8.57673 30.5146C6.71854 30.5437 4.86012 30.57 3.00171 30.5993C3.25993 30.1646 3.53161 29.7364 3.77934 29.3056C4.30422 28.3926 4.8291 27.4796 5.35398 26.5663C6.17313 25.1412 6.99227 23.7163 7.81142 22.2911C8.50533 23.181 9.66756 23.7649 10.622 24.218C11.9222 24.8355 13.2386 25.2609 14.6552 25.4989C17.549 25.9851 20.5772 25.6294 23.302 24.5197C24.7242 23.9405 26.061 23.1866 27.3 22.2756C28.1222 23.7057 28.9443 25.136 29.7664 26.5661C30.2913 27.4791 30.8161 28.3921 31.341 29.3054C31.6305 29.8087 31.9526 30.3082 32.2478 30.8192C31.917 30.7724 31.5853 30.7323 31.2528 30.7217Z" fill="black"></path>
<path d="M18.0669 18.8955C16.8061 18.7346 15.5184 19.6442 15.2577 20.8738C15.1156 21.5437 15.567 22.6912 15.5693 22.6944C15.9051 23.4086 17.0429 24.0018 17.8602 23.95C19.1415 23.8688 20.2531 22.7698 20.3078 21.4993C20.3617 20.2421 19.3222 19.0558 18.0669 18.8955Z" fill="black"></path>
<path d="M17.2125 7.27917C17.2039 7.27827 17.195 7.27782 17.1861 7.27804C17.0501 7.28119 16.9566 7.40928 16.8859 7.52386C16.1101 8.77971 15.4675 10.1243 14.8003 11.4411C14.54 11.9469 14.2809 12.4532 14.0208 12.9592C13.8534 13.2687 13.6853 13.578 13.5142 13.8862C13.3162 14.2428 13.1357 14.6103 12.9473 14.9721C12.807 15.2411 12.659 15.5182 12.5586 15.8072C12.5041 15.9137 12.4494 16.0199 12.3948 16.1264C12.2324 16.4434 12.7101 16.7234 12.8803 16.4065C14.3212 13.5623 15.9139 10.8032 17.3245 7.94412C17.3854 7.82077 17.4477 7.69043 17.4397 7.55357C17.432 7.42549 17.3385 7.29335 17.2125 7.27917Z" fill="black"></path>
<path d="M7.99041 24.0842C7.90921 24.0801 7.82572 24.1166 7.7639 24.171C7.68566 24.2399 7.63525 24.3333 7.5862 24.4247C6.74128 26 5.81515 27.5348 5.00285 29.1253C4.95152 29.2257 4.89952 29.3284 4.88492 29.44C4.87032 29.5515 4.89997 29.6753 4.98802 29.7464C5.10185 29.8385 5.27841 29.8137 5.39794 29.7291C5.51747 29.6444 5.5932 29.5137 5.66528 29.3871C6.1669 28.5061 6.67079 27.6221 7.1318 26.7262C7.25886 26.4131 7.49998 26.174 7.63753 25.8634C7.80519 25.4845 7.96897 25.1041 8.13481 24.7246C8.18271 24.6152 8.2313 24.5017 8.23084 24.3826C8.23039 24.2636 8.16788 24.1359 8.05383 24.0963C8.03284 24.0891 8.01163 24.0851 7.99041 24.0842Z" fill="black"></path>
<path d="M26.5881 23.3826C24.9427 24.6359 23.1115 25.5685 21.0886 26.0678C19.3223 26.5038 17.6174 26.5056 15.8135 26.4521C15.6609 26.4476 15.4944 26.4473 15.3744 26.5405C15.2544 26.6337 15.2394 26.8579 15.381 26.9138C17.3067 27.3027 19.2185 27.2786 21.1299 26.8302C23.2926 26.3229 25.3125 25.3387 27.042 23.9633C27.3701 23.7026 26.9255 23.1255 26.5881 23.3826Z" fill="black"></path>
</svg></svg></g></g><defs><clipPath id="SvgjsClipPath1083"><rect width="1000" height="1000" x="0" y="0" rx="500" ry="500"></rect></clipPath></defs></svg></g><g id="dark-icon"><svg xmlns="http://www.w3.org/2000/svg" version="1.1" xmlns:xlink="http://www.w3.org/1999/xlink" width="1000" height="1000"><g clip-path="url(#SvgjsClipPath1084)"><rect width="1000" height="1000" fill="#000000"></rect><g transform="matrix(20,0,0,20,150,150)"><svg xmlns="http://www.w3.org/2000/svg" version="1.1" xmlns:xlink="http://www.w3.org/1999/xlink" width="35" height="35"><svg width="35" height="35" viewBox="0 0 35 35" fill="none" xmlns="http://www.w3.org/2000/svg">
<path d="M34.837 31.2487C34.0875 30.2715 33.5532 29.1345 32.951 28.0639C32.3609 27.0149 31.7708 25.9657 31.1807 24.9168C29.0857 21.1926 26.9985 17.464 24.8955 13.7442C22.7791 10.0005 20.7049 6.22436 18.5146 2.52276C18.2774 2.12185 17.9138 1.97576 17.5602 2.00322C17.2066 1.97576 16.843 2.12185 16.6058 2.52276C14.4152 6.22459 12.3412 10.0007 10.2248 13.7442C8.12188 17.464 0 31.3779 0 31.8135C0 32.4348 0.549972 33.0227 1.20168 32.9993C9.41412 32.7042 5.3054 32.9172 14.8847 32.8598C16.0991 32.8526 29.4929 32.7672 30.7069 32.8037C31.2906 32.8213 33.9821 32.8967 34.3229 32.7549C34.8505 32.5354 35.2317 31.7633 34.837 31.2487ZM8.54799 21.0096C8.56327 20.9831 8.57856 20.9563 8.59384 20.9297C8.64767 20.8941 8.70151 20.8593 8.75557 20.8255C9.37215 20.4401 9.99809 20.0586 10.6548 19.743C11.7283 19.227 12.8791 18.8392 14.0455 18.5621C13.315 19.37 12.8673 20.4077 12.8709 21.5542C12.8736 22.4113 13.1821 23.2557 13.6978 23.9292C12.9925 23.7478 12.2995 23.5067 11.633 23.2397C10.9509 22.9665 10.3056 22.586 9.68694 22.1876C9.2476 21.9046 8.81396 21.5962 8.34634 21.3606C8.41363 21.2435 8.48069 21.1265 8.54799 21.0096ZM21.2223 22.966C20.897 23.4531 20.4782 23.8248 20.003 24.0962C19.7836 24.1329 19.5637 24.1649 19.344 24.1906C18.68 24.268 18.0305 24.3502 17.3601 24.3567C16.6927 24.3632 16.0531 24.2928 15.3904 24.2318C15.3411 24.2273 15.2918 24.2216 15.2428 24.2162C14.4303 23.7142 13.8449 22.8969 13.7658 21.8952C13.6378 20.276 14.662 18.8248 16.1621 18.2255C16.1835 18.217 16.2054 18.2091 16.2271 18.2008C17.2157 18.1209 18.2201 18.1479 19.1941 18.2535C19.4606 18.2823 19.7204 18.3259 19.9782 18.3766C20.258 18.5272 20.5199 18.7127 20.7549 18.9362C21.8913 20.0174 22.0909 21.6656 21.2223 22.966ZM22.0138 18.8367C22.5042 18.9729 22.9995 19.1476 23.426 19.3603C24.1512 19.7218 24.8917 20.0124 25.6013 20.4145C25.9275 20.599 26.2485 20.792 26.5632 20.9939C26.5662 20.999 26.5694 21.0045 26.5724 21.0096C26.6004 21.0587 26.6287 21.1078 26.657 21.1566C25.2418 22.2569 23.5919 23.1166 21.8651 23.6521C22.9164 22.2097 23.0538 20.3084 22.0138 18.8367ZM14.9134 9.88343C15.7905 8.34169 16.6872 6.80941 17.5602 5.26475C18.4329 6.80941 19.3299 8.34147 20.207 9.88343C21.8767 12.8186 23.5542 15.7492 25.235 18.678C25.0356 18.5679 24.8358 18.4585 24.6369 18.3467C24.3034 18.1587 23.94 18.0621 23.5901 17.9115C23.2064 17.7463 22.82 17.6112 22.4178 17.4962C21.6326 17.2716 20.8664 17.0915 20.058 16.9654C16.9187 16.4756 13.5965 16.8887 10.7061 18.2082C10.4527 18.3239 10.1991 18.4446 9.94745 18.5702C11.6074 15.6769 13.2642 12.7823 14.9134 9.88343ZM31.2528 30.7217C30.1606 30.6864 29.0672 30.6796 27.975 30.6488C25.8201 30.5878 23.6651 30.5423 21.5092 30.5236C17.1995 30.4865 12.886 30.4473 8.57673 30.5146C6.71854 30.5437 4.86012 30.57 3.00171 30.5993C3.25993 30.1646 3.53161 29.7364 3.77934 29.3056C4.30422 28.3926 4.8291 27.4796 5.35398 26.5663C6.17313 25.1412 6.99227 23.7163 7.81142 22.2911C8.50533 23.181 9.66756 23.7649 10.622 24.218C11.9222 24.8355 13.2386 25.2609 14.6552 25.4989C17.549 25.9851 20.5772 25.6294 23.302 24.5197C24.7242 23.9405 26.061 23.1866 27.3 22.2756C28.1222 23.7057 28.9443 25.136 29.7664 26.5661C30.2913 27.4791 30.8161 28.3921 31.341 29.3054C31.6305 29.8087 31.9526 30.3082 32.2478 30.8192C31.917 30.7724 31.5853 30.7323 31.2528 30.7217Z" fill="white"></path>
<path d="M18.0669 18.8955C16.8061 18.7346 15.5184 19.6442 15.2577 20.8738C15.1156 21.5437 15.567 22.6912 15.5693 22.6944C15.9051 23.4086 17.0429 24.0018 17.8602 23.95C19.1415 23.8688 20.2531 22.7698 20.3078 21.4993C20.3617 20.2421 19.3222 19.0558 18.0669 18.8955Z" fill="white"></path>
<path d="M17.2125 7.27917C17.2039 7.27827 17.195 7.27782 17.1861 7.27804C17.0501 7.28119 16.9566 7.40928 16.8859 7.52386C16.1101 8.77971 15.4675 10.1243 14.8003 11.4411C14.54 11.9469 14.2809 12.4532 14.0208 12.9592C13.8534 13.2687 13.6853 13.578 13.5142 13.8862C13.3162 14.2428 13.1357 14.6103 12.9473 14.9721C12.807 15.2411 12.659 15.5182 12.5586 15.8072C12.5041 15.9137 12.4494 16.0199 12.3948 16.1264C12.2324 16.4434 12.7101 16.7234 12.8803 16.4065C14.3212 13.5623 15.9139 10.8032 17.3245 7.94412C17.3854 7.82077 17.4477 7.69043 17.4397 7.55357C17.432 7.42549 17.3385 7.29335 17.2125 7.27917Z" fill="white"></path>
<path d="M7.99041 24.0842C7.90921 24.0801 7.82572 24.1166 7.7639 24.171C7.68566 24.2399 7.63525 24.3333 7.5862 24.4247C6.74128 26 5.81515 27.5348 5.00285 29.1253C4.95152 29.2257 4.89952 29.3284 4.88492 29.44C4.87032 29.5515 4.89997 29.6753 4.98802 29.7464C5.10185 29.8385 5.27841 29.8137 5.39794 29.7291C5.51747 29.6444 5.5932 29.5137 5.66528 29.3871C6.1669 28.5061 6.67079 27.6221 7.1318 26.7262C7.25886 26.4131 7.49998 26.174 7.63753 25.8634C7.80519 25.4845 7.96897 25.1041 8.13481 24.7246C8.18271 24.6152 8.2313 24.5017 8.23084 24.3826C8.23039 24.2636 8.16788 24.1359 8.05383 24.0963C8.03284 24.0891 8.01163 24.0851 7.99041 24.0842Z" fill="white"></path>
<path d="M26.5881 23.3826C24.9427 24.6359 23.1115 25.5685 21.0886 26.0678C19.3223 26.5038 17.6174 26.5056 15.8135 26.4521C15.6609 26.4476 15.4944 26.4473 15.3744 26.5405C15.2544 26.6337 15.2394 26.8579 15.381 26.9138C17.3067 27.3027 19.2185 27.2786 21.1299 26.8302C23.2926 26.3229 25.3125 25.3387 27.042 23.9633C27.3701 23.7026 26.9255 23.1255 26.5881 23.3826Z" fill="white"></path>
</svg></svg></g></g><defs><clipPath id="SvgjsClipPath1084"><rect width="1000" height="1000" x="0" y="0" rx="500" ry="500"></rect></clipPath></defs></svg></g></svg>