<svg xmlns="http://www.w3.org/2000/svg" version="1.1" xmlns:xlink="http://www.w3.org/1999/xlink" width="1000" height="1000"><style>
    #light-icon {
      display: inline;
    }
    #dark-icon {
      display: none;
    }

    @media (prefers-color-scheme: dark) {
      #light-icon {
        display: none;
      }
      #dark-icon {
        display: inline;
      }
    }
  </style><g id="light-icon"><svg xmlns="http://www.w3.org/2000/svg" version="1.1" xmlns:xlink="http://www.w3.org/1999/xlink" width="1000" height="1000"><g><g transform="matrix(27.77777777777778,0,0,27.77777777777778,0,0)"><svg xmlns="http://www.w3.org/2000/svg" version="1.1" xmlns:xlink="http://www.w3.org/1999/xlink" width="36" height="36"><svg width="36" height="36" viewBox="0 0 36 36" fill="none" xmlns="http://www.w3.org/2000/svg">
<path d="M16.8944 0.053957C21.7644 -0.356813 27.0042 1.59789 30.6678 5.23095C33.7394 8.27658 35.7357 12.4939 35.977 17.1292C36.2068 21.5471 34.7028 25.8804 32.1048 29.1605C28.8035 33.3286 24.0266 35.6101 19.1203 35.9357L19.0447 35.9429C14.3438 36.3591 9.18434 34.4759 5.60041 31.0378C2.49439 28.0579 0.365257 23.9501 0.0424212 19.3146C-0.25874 14.8542 1.05294 10.4454 3.68039 7.08774C7.04169 2.72078 11.7942 0.480975 16.8451 0.0597708C16.8616 0.0576163 16.8779 0.0550342 16.8944 0.053957ZM24.9831 27.2816C24.2977 27.687 23.5073 27.949 22.7616 28.1827C19.4983 29.2351 16.0314 29.1848 12.7933 28.0377C12.2059 27.8315 11.6068 27.5076 11.0098 27.3597C12.1741 29.9012 13.7683 32.489 16.3017 33.4187C17.7328 33.944 19.2099 33.7793 20.5437 33.0095C21.614 32.3916 22.5704 31.4347 23.3036 30.3665C23.9678 29.4149 24.5314 28.3796 24.9831 27.2816ZM31.0637 23.5625C30.4709 23.8436 29.9176 24.3333 29.3798 24.7319C28.8908 25.0898 28.3943 25.4339 27.8902 25.7642C27.2038 28.1642 26.1545 30.3283 24.7054 32.2504L25.7537 31.6807C27.9668 30.3589 29.863 28.6573 31.3322 26.3503C31.6273 25.8875 31.9795 25.3581 32.1411 24.8127C32.2147 24.5635 32.2441 24.2813 32.1292 24.0411C32.0096 23.7912 31.7249 23.6655 31.4933 23.6012C31.3558 23.5632 31.2048 23.5546 31.0637 23.5625ZM4.59528 23.5077C4.29981 23.6215 3.9764 23.7641 3.83098 24.1023C3.72436 24.3504 3.75406 24.6075 3.83984 24.857C4.03694 25.4297 4.41643 25.9871 4.73812 26.4779C6.28163 28.8345 8.22561 30.5376 10.5328 31.8551L11.2835 32.2332C9.74542 30.4691 8.79255 28.0629 8.07878 25.757C7.52443 25.3829 6.97609 24.9972 6.43502 24.6001C5.99771 24.2748 5.54459 23.8682 5.0703 23.6237C4.92239 23.5472 4.75755 23.5141 4.59528 23.5077ZM19.8135 10.5037C19.7743 10.503 19.7352 10.5066 19.6961 10.5087C20.2404 10.6667 20.789 10.7931 21.3221 10.9971C23.1783 11.7073 24.8569 13.0602 25.8551 14.9858C26.7077 16.5959 26.945 18.5255 26.5139 20.3356C25.9987 22.4896 24.5956 24.2105 22.8992 25.2988C22.3064 25.6794 21.0247 26.3614 20.3425 26.3658L20.2566 26.4306C21.1892 26.573 23.8161 25.3679 24.7237 24.8739C27.857 23.1306 30.3603 20.7027 32.6812 17.7889C29.899 14.4388 26.3122 12.0698 22.3563 10.9699C21.5478 10.7491 20.6446 10.5134 19.8135 10.5037ZM8.29083 16.4512C7.88083 16.2698 7.39329 16.2705 6.9596 16.3136C6.30402 16.5243 5.71832 16.8568 5.36179 17.5472C5.10436 18.0449 5.01793 18.7337 5.16442 19.2888C5.57168 20.8336 9.98201 23.9395 11.3718 24.728C12.2712 25.2418 13.2049 25.6752 14.1649 26.0239C14.5412 26.1474 15.1026 26.4023 15.4857 26.3528C15.0706 26.1862 14.6418 26.064 14.235 25.8744C12.3939 25.0166 10.7972 23.5783 9.93763 21.5191C9.69708 20.9432 9.51188 20.319 9.42606 19.6889C9.26522 18.5079 9.52442 16.9966 8.29083 16.4512ZM18.1107 12.9867C17.9704 12.9569 17.8077 12.984 17.6659 12.9984C16.8394 13.6134 16.8752 16.09 16.155 16.7095C15.4168 17.3436 12.7443 17.3335 12.4855 18.2847C12.4442 18.4366 12.4758 18.548 12.5519 18.6762C12.9276 19.3074 15.5094 19.7322 16.276 20.144C16.2853 20.1659 16.2941 20.1878 16.3031 20.2096C16.6032 20.96 17.1067 23.5329 17.7102 23.8208C17.8714 23.8976 18.019 23.8747 18.1888 23.8507C18.2821 23.7921 18.3903 23.7283 18.4604 23.6353C18.9379 22.9997 19.1921 20.9786 19.6753 20.1135L19.7404 20.0847C20.4151 19.7946 23.1981 19.24 23.4146 18.5754C23.4598 18.4361 23.4312 18.2803 23.3637 18.1568C22.9256 17.3573 20.2412 17.2893 19.6762 16.6439C19.055 15.934 18.9985 13.1766 18.1107 12.9867ZM11.144 3.8207C10.5319 4.15498 9.91784 4.48513 9.33084 4.87326C8.4555 5.45137 6.18757 7.13316 5.83931 8.22114C5.73379 8.55145 5.76288 8.89116 5.90325 9.20172C5.99696 9.40958 6.12511 9.57594 6.26367 9.74683C6.70848 10.0789 7.11497 10.2689 7.66244 10.1386C7.83582 10.0973 7.9931 10.0365 8.15463 9.95612C8.88061 7.92163 9.61134 6.11136 10.827 4.36664C10.9054 4.25457 11.1679 3.94461 11.144 3.8207ZM24.815 3.85586C26.1776 5.7503 27.0621 7.6969 27.8351 9.95723C28.3561 10.1824 28.8216 10.2899 29.3541 10.0159C29.5152 9.93299 29.6548 9.82052 29.7959 9.7017C30.0543 9.32866 30.1696 9.03199 30.2518 8.56886C30.2058 8.38539 30.1622 8.1874 30.0721 8.02403C29.395 6.80103 27.4348 5.36045 26.2999 4.64985C25.8763 4.38451 25.2897 3.98298 24.815 3.85586ZM17.8801 2.26788C15.8329 2.44921 14.2448 3.5598 12.9229 5.30126C12.1814 6.27829 11.6216 7.38581 11.0626 8.49965C13.2912 7.4271 15.9172 7.0418 18.3253 7.06227C20.5197 7.1427 22.8793 7.50996 24.9125 8.48553C23.6871 5.9663 22.1203 3.40109 19.5402 2.53753C18.9949 2.35513 18.4481 2.27184 17.8801 2.26788Z" fill="#111111"></path>
</svg></svg></g></g></svg></g><g id="dark-icon"><svg xmlns="http://www.w3.org/2000/svg" version="1.1" xmlns:xlink="http://www.w3.org/1999/xlink" width="1000" height="1000"><g><g transform="matrix(27.77777777777778,0,0,27.77777777777778,0,0)"><svg xmlns="http://www.w3.org/2000/svg" version="1.1" xmlns:xlink="http://www.w3.org/1999/xlink" width="36" height="36"><svg width="36" height="36" viewBox="0 0 36 36" fill="none" xmlns="http://www.w3.org/2000/svg">
<path d="M16.8944 0.053957C21.7644 -0.356813 27.0042 1.59789 30.6678 5.23095C33.7394 8.27658 35.7357 12.4939 35.977 17.1292C36.2068 21.5471 34.7028 25.8804 32.1048 29.1605C28.8035 33.3286 24.0266 35.6101 19.1203 35.9357L19.0447 35.9429C14.3438 36.3591 9.18434 34.4759 5.60041 31.0378C2.49439 28.0579 0.365257 23.9501 0.0424212 19.3146C-0.25874 14.8542 1.05294 10.4454 3.68039 7.08774C7.04169 2.72078 11.7942 0.480975 16.8451 0.0597708C16.8616 0.0576163 16.8779 0.0550342 16.8944 0.053957ZM24.9831 27.2816C24.2977 27.687 23.5073 27.949 22.7616 28.1827C19.4983 29.2351 16.0314 29.1848 12.7933 28.0377C12.2059 27.8315 11.6068 27.5076 11.0098 27.3597C12.1741 29.9012 13.7683 32.489 16.3017 33.4187C17.7328 33.944 19.2099 33.7793 20.5437 33.0095C21.614 32.3916 22.5704 31.4347 23.3036 30.3665C23.9678 29.4149 24.5314 28.3796 24.9831 27.2816ZM31.0637 23.5625C30.4709 23.8436 29.9176 24.3333 29.3798 24.7319C28.8908 25.0898 28.3943 25.4339 27.8902 25.7642C27.2038 28.1642 26.1545 30.3283 24.7054 32.2504L25.7537 31.6807C27.9668 30.3589 29.863 28.6573 31.3322 26.3503C31.6273 25.8875 31.9795 25.3581 32.1411 24.8127C32.2147 24.5635 32.2441 24.2813 32.1292 24.0411C32.0096 23.7912 31.7249 23.6655 31.4933 23.6012C31.3558 23.5632 31.2048 23.5546 31.0637 23.5625ZM4.59528 23.5077C4.29981 23.6215 3.9764 23.7641 3.83098 24.1023C3.72436 24.3504 3.75406 24.6075 3.83984 24.857C4.03694 25.4297 4.41643 25.9871 4.73812 26.4779C6.28163 28.8345 8.22561 30.5376 10.5328 31.8551L11.2835 32.2332C9.74542 30.4691 8.79255 28.0629 8.07878 25.757C7.52443 25.3829 6.97609 24.9972 6.43502 24.6001C5.99771 24.2748 5.54459 23.8682 5.0703 23.6237C4.92239 23.5472 4.75755 23.5141 4.59528 23.5077ZM19.8135 10.5037C19.7743 10.503 19.7352 10.5066 19.6961 10.5087C20.2404 10.6667 20.789 10.7931 21.3221 10.9971C23.1783 11.7073 24.8569 13.0602 25.8551 14.9858C26.7077 16.5959 26.945 18.5255 26.5139 20.3356C25.9987 22.4896 24.5956 24.2105 22.8992 25.2988C22.3064 25.6794 21.0247 26.3614 20.3425 26.3658L20.2566 26.4306C21.1892 26.573 23.8161 25.3679 24.7237 24.8739C27.857 23.1306 30.3603 20.7027 32.6812 17.7889C29.899 14.4388 26.3122 12.0698 22.3563 10.9699C21.5478 10.7491 20.6446 10.5134 19.8135 10.5037ZM8.29083 16.4512C7.88083 16.2698 7.39329 16.2705 6.9596 16.3136C6.30402 16.5243 5.71832 16.8568 5.36179 17.5472C5.10436 18.0449 5.01793 18.7337 5.16442 19.2888C5.57168 20.8336 9.98201 23.9395 11.3718 24.728C12.2712 25.2418 13.2049 25.6752 14.1649 26.0239C14.5412 26.1474 15.1026 26.4023 15.4857 26.3528C15.0706 26.1862 14.6418 26.064 14.235 25.8744C12.3939 25.0166 10.7972 23.5783 9.93763 21.5191C9.69708 20.9432 9.51188 20.319 9.42606 19.6889C9.26522 18.5079 9.52442 16.9966 8.29083 16.4512ZM18.1107 12.9867C17.9704 12.9569 17.8077 12.984 17.6659 12.9984C16.8394 13.6134 16.8752 16.09 16.155 16.7095C15.4168 17.3436 12.7443 17.3335 12.4855 18.2847C12.4442 18.4366 12.4758 18.548 12.5519 18.6762C12.9276 19.3074 15.5094 19.7322 16.276 20.144C16.2853 20.1659 16.2941 20.1878 16.3031 20.2096C16.6032 20.96 17.1067 23.5329 17.7102 23.8208C17.8714 23.8976 18.019 23.8747 18.1888 23.8507C18.2821 23.7921 18.3903 23.7283 18.4604 23.6353C18.9379 22.9997 19.1921 20.9786 19.6753 20.1135L19.7404 20.0847C20.4151 19.7946 23.1981 19.24 23.4146 18.5754C23.4598 18.4361 23.4312 18.2803 23.3637 18.1568C22.9256 17.3573 20.2412 17.2893 19.6762 16.6439C19.055 15.934 18.9985 13.1766 18.1107 12.9867ZM11.144 3.8207C10.5319 4.15498 9.91784 4.48513 9.33084 4.87326C8.4555 5.45137 6.18757 7.13316 5.83931 8.22114C5.73379 8.55145 5.76288 8.89116 5.90325 9.20172C5.99696 9.40958 6.12511 9.57594 6.26367 9.74683C6.70848 10.0789 7.11497 10.2689 7.66244 10.1386C7.83582 10.0973 7.9931 10.0365 8.15463 9.95612C8.88061 7.92163 9.61134 6.11136 10.827 4.36664C10.9054 4.25457 11.1679 3.94461 11.144 3.8207ZM24.815 3.85586C26.1776 5.7503 27.0621 7.6969 27.8351 9.95723C28.3561 10.1824 28.8216 10.2899 29.3541 10.0159C29.5152 9.93299 29.6548 9.82052 29.7959 9.7017C30.0543 9.32866 30.1696 9.03199 30.2518 8.56886C30.2058 8.38539 30.1622 8.1874 30.0721 8.02403C29.395 6.80103 27.4348 5.36045 26.2999 4.64985C25.8763 4.38451 25.2897 3.98298 24.815 3.85586ZM17.8801 2.26788C15.8329 2.44921 14.2448 3.5598 12.9229 5.30126C12.1814 6.27829 11.6216 7.38581 11.0626 8.49965C13.2912 7.4271 15.9172 7.0418 18.3253 7.06227C20.5197 7.1427 22.8793 7.50996 24.9125 8.48553C23.6871 5.9663 22.1203 3.40109 19.5402 2.53753C18.9949 2.35513 18.4481 2.27184 17.8801 2.26788Z" fill="white"></path>
</svg></svg></g></g></svg></g></svg>