<svg viewBox="0 0 180 31" fill="none" xmlns="http://www.w3.org/2000/svg">
    <path fill-rule="evenodd" clip-rule="evenodd" d="M9.031 20.3601H19.652C20.447 20.3601 21.0511 20.2332 21.4645 19.9637C21.8938 19.6941 22.1005 19.2343 22.1005 18.5683C22.1005 17.9023 21.9097 17.5693 21.544 17.268C21.1783 16.9509 20.5424 16.7765 19.652 16.7765H9.031V20.3601ZM9.031 10.7033V14.176H19.2386C19.9541 14.176 20.5106 14.065 20.9239 13.8271C21.3532 13.5893 21.5599 13.1453 21.5599 12.4793C21.5599 11.8133 21.3532 11.401 20.9398 11.1315C20.5265 10.846 19.9223 10.7033 19.1432 10.7033H9.031ZM5.67618 23.1985V10.7509H9.0151V7.88082H19.1591C22.9909 7.88082 24.9148 9.26036 24.9148 12.0194C24.9148 14.7785 24.8512 13.0343 24.7399 13.4307C24.6286 13.8271 24.4537 14.176 24.2311 14.4455C24.0085 14.7151 23.7382 14.9371 23.4043 15.1115C23.0863 15.2859 22.7365 15.4286 22.339 15.5079C23.293 15.6824 24.0562 16.0471 24.6286 16.5703C25.201 17.0936 25.4712 17.9023 25.4712 18.9806C25.4712 20.0588 25.3281 20.3601 25.0261 20.8834C24.7399 21.4225 24.3424 21.8506 23.8336 22.1836C23.3248 22.5166 22.7206 22.7703 22.021 22.9289C21.3055 23.0875 20.5265 23.1668 19.6838 23.1668H5.67618V23.1985ZM5.05609 0C2.25775 0 0 2.25166 0 5.04246V25.9575C0 28.7483 2.25775 31 5.05609 31H26.0277C28.8261 31 31.0838 28.7483 31.0838 25.9575V5.04246C31.0838 2.25166 28.8261 0 26.0277 0H5.05609Z" fill="url(#paint0_linear_574_154)"/>
    <path d="M150.22 23.9596V9.78363H152.001V17.9657L159.076 13.3197H161.763L154.243 18.3146L162.065 23.9596H159.426L152.001 18.5049V23.9596H150.22ZM135.37 23.9596V13.3197H137.15V14.7309C137.421 14.3662 137.739 14.0808 138.136 13.843C138.534 13.6051 139.058 13.4307 139.71 13.3038C140.378 13.177 141.237 13.1136 142.302 13.1136C143.367 13.1136 144.798 13.2563 145.593 13.5258C146.404 13.7954 146.976 14.287 147.31 14.9688C147.644 15.6665 147.819 16.6496 147.819 17.9182V23.9437H146.038V17.9182C146.038 17.1887 145.975 16.602 145.848 16.1581C145.72 15.7141 145.514 15.3811 145.212 15.1591C144.909 14.9371 144.512 14.7785 143.987 14.6992C143.463 14.6199 142.795 14.5724 141.984 14.5724C140.744 14.5724 139.774 14.6675 139.074 14.8737C138.375 15.0798 137.882 15.3969 137.58 15.8409C137.294 16.2691 137.15 16.8399 137.15 17.5376V23.9437H135.37V23.9596ZM126.514 22.7228C127.563 22.7228 128.406 22.7228 129.042 22.691C129.678 22.6593 130.139 22.5959 130.441 22.4849C130.759 22.3739 130.965 22.1995 131.061 21.9458C131.156 21.6921 131.204 21.3591 131.204 20.9151V19.2818L126.498 19.2343C125.671 19.2343 124.987 19.2343 124.478 19.266C123.97 19.2977 123.588 19.377 123.318 19.488C123.047 19.599 122.873 19.7734 122.777 20.0271C122.698 20.265 122.65 20.598 122.65 21.0102C122.65 21.4225 122.698 21.7238 122.777 21.9616C122.873 22.1995 123.047 22.3739 123.318 22.4849C123.588 22.5959 123.97 22.6593 124.478 22.691C124.987 22.7228 125.671 22.7386 126.498 22.7386L126.514 22.7228ZM126.514 24.1657C125.242 24.1657 124.176 24.1023 123.35 23.9596C122.523 23.8327 121.903 23.5473 121.505 23.0875C121.108 22.6435 120.901 21.9458 120.901 20.9944C120.901 20.043 121.092 19.3136 121.473 18.8696C121.855 18.4097 122.459 18.1243 123.286 17.9816C124.113 17.8389 125.194 17.7754 126.529 17.7754C127.865 17.7754 128.533 17.8072 129.264 17.8547C129.996 17.9023 130.663 17.9974 131.236 18.1084C131.236 17.2839 131.172 16.6496 131.077 16.1739C130.981 15.6982 130.791 15.3494 130.52 15.1274C130.25 14.9054 129.852 14.7627 129.328 14.6992C128.803 14.6358 128.119 14.6041 127.261 14.6041C126.402 14.6041 125.496 14.6199 124.939 14.6675C124.383 14.7151 123.986 14.7944 123.731 14.9054C123.477 15.0164 123.318 15.1749 123.254 15.3811C123.191 15.5872 123.159 15.8568 123.159 16.1898H121.378C121.378 15.5238 121.473 14.9847 121.648 14.5882C121.839 14.176 122.141 13.8747 122.586 13.6685C123.032 13.4624 123.62 13.3197 124.383 13.2404C125.146 13.1611 126.116 13.1294 127.277 13.1294C128.437 13.1294 129.519 13.2087 130.282 13.3673C131.045 13.5258 131.633 13.8113 132.015 14.2394C132.412 14.6517 132.683 15.2225 132.826 15.9678C132.969 16.713 133.032 17.6803 133.032 18.8537V23.9596H131.252V23.2302C131.045 23.4522 130.759 23.6266 130.377 23.7693C130.011 23.912 129.519 24.0072 128.899 24.0706C128.294 24.134 127.499 24.1657 126.545 24.1657H126.514ZM103.713 22.4849H112.474C113.317 22.4849 114.016 22.4691 114.573 22.4215C115.129 22.3739 115.559 22.2788 115.877 22.1043C116.195 21.9458 116.417 21.6762 116.544 21.3274C116.672 20.9627 116.735 20.4711 116.735 19.8368C116.735 19.2026 116.608 18.6793 116.37 18.3146C116.131 17.9499 115.797 17.6962 115.352 17.5376C114.923 17.379 114.414 17.2839 113.842 17.2363C113.269 17.1887 112.649 17.1887 111.997 17.1887H103.713V22.5008V22.4849ZM103.713 15.6982H111.997C112.951 15.6982 113.73 15.6665 114.35 15.6031C114.955 15.5396 115.416 15.3335 115.718 15.0005C116.02 14.6675 116.163 14.1125 116.163 13.3038C116.163 12.4951 116.067 12.2256 115.893 11.9402C115.718 11.6547 115.431 11.4644 115.002 11.3852C114.573 11.3059 114.001 11.2583 113.269 11.2583H103.713V15.6982ZM101.933 23.9596V9.78363H113.269C114.35 9.78363 115.225 9.87877 115.908 10.0849C116.592 10.2752 117.101 10.6399 117.435 11.1473C117.769 11.6547 117.928 12.3683 117.928 13.3038C117.928 14.2394 117.737 14.8261 117.339 15.3811C116.958 15.9361 116.354 16.2373 115.559 16.2849C116.608 16.3959 117.371 16.7606 117.832 17.4107C118.293 18.045 118.532 18.8537 118.532 19.8368C118.532 20.8199 118.437 21.3749 118.23 21.9141C118.039 22.4532 117.721 22.8813 117.26 23.1826C116.799 23.4839 116.179 23.69 115.4 23.801C114.621 23.912 113.651 23.9754 112.49 23.9754H101.949L101.933 23.9596ZM97.1946 11.5596V9.78363H98.9754V11.5596H97.1946ZM97.1946 23.9596V13.9223H98.9754V23.9596H97.1946ZM81.7878 23.9596V9.78363H95.1912V11.2583H83.5686V15.9836H94.6665V17.4583H83.5686V23.9596H81.7878ZM72.8522 14.6041C71.8505 14.6041 71.0397 14.6358 70.4196 14.7151C69.8154 14.7944 69.3384 14.9371 69.0204 15.1432C68.7024 15.3494 68.4798 15.6665 68.3685 16.0788C68.2572 16.491 68.1936 17.046 68.1936 17.7279H77.2087V16.8399C77.2087 16.3959 77.161 16.0312 77.0497 15.7458C76.9543 15.4445 76.7476 15.2225 76.4614 15.0481C76.1593 14.8737 75.7301 14.7627 75.1418 14.6834C74.5694 14.6199 73.8062 14.5882 72.8522 14.5882V14.6041ZM78.8941 20.8041C78.8941 21.5969 78.7669 22.2153 78.5284 22.6752C78.2899 23.135 77.9401 23.468 77.4472 23.6742C76.9543 23.8803 76.3342 24.023 75.5711 24.0706C74.8238 24.134 73.9175 24.1657 72.884 24.1657C71.8505 24.1657 70.674 24.1023 69.8472 23.9754C69.0204 23.8644 68.3526 23.6107 67.8438 23.246C67.335 22.8655 66.9694 22.3105 66.7309 21.5652C66.5083 20.8199 66.3811 19.821 66.3811 18.5841C66.3811 17.3473 66.4924 16.4118 66.715 15.6824C66.9375 14.9529 67.3032 14.4138 67.812 14.0332C68.3208 13.6685 68.9886 13.4148 69.7995 13.288C70.6263 13.1611 71.6279 13.0977 72.8204 13.0977C74.0129 13.0977 75.3167 13.1928 76.207 13.3831C77.0974 13.5734 77.7652 13.9381 78.2104 14.4772C78.6556 15.0164 78.8782 15.7933 78.8782 16.824V19.1074H68.1618C68.1618 19.9003 68.2254 20.5187 68.3208 20.9944C68.4321 21.4701 68.6388 21.8189 68.9568 22.0726C69.2748 22.3263 69.7359 22.4691 70.356 22.5483C70.992 22.6276 71.8187 22.6593 72.8681 22.6593C73.9175 22.6593 74.5694 22.6435 75.1418 22.6118C75.7142 22.5801 76.1593 22.5008 76.4614 22.3739C76.7635 22.2471 76.9702 22.0568 77.0656 21.8031C77.1769 21.5494 77.2246 21.2164 77.2246 20.7882H78.8782L78.8941 20.8041ZM48.6529 22.4373H57.4296C58.5266 22.4373 59.417 22.3898 60.1007 22.2788C60.7844 22.1678 61.2932 21.9458 61.643 21.5969C61.9928 21.2481 62.2313 20.7089 62.3584 19.9954C62.4856 19.2818 62.5492 18.2987 62.5492 17.0619V16.6972C62.5492 15.6824 62.5174 14.8261 62.4379 14.1601C62.3584 13.4941 62.2313 12.9708 62.0246 12.5903C61.8338 12.2097 61.5317 11.9243 61.1501 11.734C60.7685 11.5437 60.2756 11.4327 59.6714 11.3852C59.0672 11.3376 58.3199 11.3059 57.4455 11.3059H48.6688V22.4215L48.6529 22.4373ZM46.8881 23.9596V9.78363H57.4455C58.8287 9.78363 59.9735 9.86292 60.8639 10.0373C61.7543 10.1959 62.4538 10.5289 62.9626 11.0046C63.4714 11.4803 63.8212 12.178 64.012 13.0818C64.2187 13.9857 64.3141 15.1908 64.3141 16.6972V17.0619C64.3141 18.5049 64.2187 19.6941 64.012 20.598C63.8212 21.5018 63.4555 22.1995 62.9626 22.691C62.4697 23.1826 61.7702 23.5156 60.8639 23.69C59.9735 23.8644 58.8287 23.9596 57.4455 23.9596H46.8881Z" fill="url(#paint1_linear_574_154)"/>
    <path d="M178.474 8.53095C178.219 8.53095 178.013 8.53095 177.869 8.56266C177.71 8.57852 177.599 8.61023 177.52 8.67366C177.44 8.72123 177.392 8.80051 177.361 8.91151C177.329 9.02251 177.313 9.14936 177.313 9.32378H179.571V9.10179C179.571 8.99079 179.571 8.89565 179.539 8.83222C179.507 8.75294 179.459 8.70537 179.396 8.6578C179.316 8.61023 179.205 8.57852 179.062 8.56266C178.919 8.5468 178.728 8.53095 178.49 8.53095H178.474ZM180 10.0849C180 10.291 179.968 10.4338 179.905 10.5606C179.841 10.6716 179.762 10.7509 179.634 10.8143C179.507 10.8619 179.364 10.8936 179.173 10.9095C178.982 10.9095 178.76 10.9253 178.505 10.9253C178.251 10.9253 177.949 10.9253 177.742 10.8777C177.536 10.846 177.361 10.7826 177.233 10.7033C177.106 10.6082 177.011 10.4655 176.963 10.291C176.9 10.1008 176.884 9.86292 176.884 9.54578C176.884 9.22864 176.915 9.00665 176.963 8.81637C177.027 8.64194 177.106 8.49923 177.233 8.40409C177.361 8.30895 177.52 8.24552 177.726 8.21381C177.933 8.1821 178.187 8.16624 178.49 8.16624C178.792 8.16624 179.11 8.19795 179.332 8.24552C179.555 8.29309 179.73 8.38824 179.825 8.51509C179.936 8.64194 179.984 8.84808 179.984 9.10179V9.67263H177.297C177.297 9.86292 177.297 10.0215 177.345 10.1483C177.377 10.2593 177.424 10.3545 177.504 10.4179C177.583 10.4813 177.695 10.513 177.854 10.5448C178.013 10.5606 178.219 10.5765 178.474 10.5765C178.728 10.5765 178.903 10.5765 179.046 10.5765C179.189 10.5765 179.3 10.5448 179.38 10.513C179.459 10.4813 179.507 10.4338 179.539 10.3703C179.571 10.3069 179.571 10.2276 179.571 10.1166H179.984L180 10.0849ZM173.243 10.8619V8.19795H173.688V8.5468C173.751 8.45166 173.831 8.38824 173.926 8.32481C174.022 8.26138 174.149 8.21381 174.324 8.19795C174.483 8.16624 174.705 8.15038 174.976 8.15038C175.246 8.15038 175.596 8.1821 175.802 8.24552C176.009 8.30895 176.152 8.43581 176.232 8.61023C176.311 8.78465 176.359 9.02251 176.359 9.3555V10.8619H175.914V9.3555C175.914 9.18107 175.914 9.02251 175.866 8.91151C175.834 8.80051 175.787 8.72123 175.707 8.6578C175.628 8.59437 175.532 8.56266 175.405 8.5468C175.278 8.53095 175.103 8.51509 174.912 8.51509C174.61 8.51509 174.356 8.5468 174.181 8.59437C174.006 8.64194 173.879 8.72123 173.815 8.83222C173.736 8.94322 173.704 9.08593 173.704 9.26036V10.8619H173.243ZM172.193 7.76982V7.32583H172.638V7.76982H172.193ZM172.193 10.8619V8.35652H172.638V10.8619H172.193ZM171.017 10.8619V7.30997H171.462V10.8619H171.017ZM167.169 10.8619V8.19795H167.614V8.5468C167.678 8.45166 167.757 8.38824 167.853 8.32481C167.948 8.26138 168.075 8.21381 168.25 8.19795C168.409 8.16624 168.632 8.15038 168.902 8.15038C169.172 8.15038 169.522 8.1821 169.729 8.24552C169.936 8.30895 170.079 8.43581 170.158 8.61023C170.238 8.78465 170.285 9.02251 170.285 9.3555V10.8619H169.84V9.3555C169.84 9.18107 169.84 9.02251 169.792 8.91151C169.761 8.80051 169.713 8.72123 169.633 8.6578C169.554 8.59437 169.459 8.56266 169.331 8.5468C169.204 8.53095 169.029 8.51509 168.838 8.51509C168.536 8.51509 168.282 8.5468 168.107 8.59437C167.932 8.64194 167.805 8.72123 167.741 8.83222C167.662 8.94322 167.63 9.08593 167.63 9.26036V10.8619H167.169ZM166.199 9.52992C166.199 9.30793 166.199 9.1335 166.167 9.00665C166.151 8.8798 166.104 8.7688 166.024 8.70537C165.945 8.64194 165.833 8.59437 165.674 8.56266C165.515 8.5468 165.293 8.53095 165.023 8.53095C164.752 8.53095 164.53 8.53095 164.371 8.56266C164.212 8.57852 164.084 8.62609 164.021 8.70537C163.941 8.7688 163.894 8.86394 163.878 9.00665C163.862 9.1335 163.846 9.30793 163.846 9.52992C163.846 9.75192 163.846 9.9422 163.878 10.0691C163.894 10.2118 163.957 10.3069 164.021 10.3862C164.1 10.4496 164.212 10.4972 164.371 10.5289C164.53 10.5448 164.752 10.5606 165.023 10.5606C165.293 10.5606 165.515 10.5606 165.674 10.5289C165.833 10.513 165.961 10.4655 166.024 10.3862C166.104 10.3228 166.151 10.2118 166.167 10.0691C166.183 9.92634 166.199 9.75192 166.199 9.52992ZM165.007 10.9253C164.705 10.9253 164.45 10.9253 164.243 10.8777C164.037 10.846 163.862 10.7826 163.735 10.7033C163.607 10.6082 163.512 10.4655 163.448 10.291C163.385 10.1008 163.353 9.86292 163.353 9.54578C163.353 9.22864 163.385 9.00665 163.448 8.81637C163.512 8.64194 163.607 8.49923 163.735 8.40409C163.862 8.30895 164.037 8.24552 164.243 8.21381C164.45 8.1821 164.705 8.16624 165.007 8.16624C165.309 8.16624 165.563 8.16624 165.77 8.21381C165.977 8.24552 166.151 8.30895 166.279 8.40409C166.406 8.49923 166.501 8.62609 166.565 8.81637C166.628 8.99079 166.66 9.2445 166.66 9.54578C166.66 9.84706 166.628 10.1008 166.565 10.291C166.501 10.4813 166.406 10.624 166.279 10.7033C166.151 10.7985 165.977 10.8619 165.77 10.8777C165.563 10.9095 165.309 10.9253 165.007 10.9253ZM162.415 10.8619V10.4179H162.86V10.8619H162.415Z" fill="url(#paint2_linear_574_154)"/>
    <defs>
        <linearGradient id="paint0_linear_574_154" x1="-1.38364e-08" y1="2.21995" x2="180.9" y2="14.5837" gradientUnits="userSpaceOnUse">
            <stop stop-color="#00FF7E"/>
            <stop offset="1" stop-color="#00FCFF"/>
        </linearGradient>
        <linearGradient id="paint1_linear_574_154" x1="-1.38364e-08" y1="2.21995" x2="180.9" y2="14.5837" gradientUnits="userSpaceOnUse">
            <stop stop-color="#00FF7E"/>
            <stop offset="1" stop-color="#00FCFF"/>
        </linearGradient>
        <linearGradient id="paint2_linear_574_154" x1="-1.38364e-08" y1="2.21995" x2="180.9" y2="14.5837" gradientUnits="userSpaceOnUse">
            <stop stop-color="#00FF7E"/>
            <stop offset="1" stop-color="#00FCFF"/>
        </linearGradient>
    </defs>
</svg>
