<svg viewBox="0 0 180 27" fill="none" xmlns="http://www.w3.org/2000/svg">
    <path d="M28.9024 12.9243C28.5229 10.6033 25.8115 9.41578 23.6426 10.3874L21.365 11.4129C19.1959 12.3845 16.7559 12.3845 14.5868 11.4129L12.3092 10.3874C10.1401 9.41578 7.42893 10.6033 7.04942 12.9243C6.99511 13.0862 6.99511 13.3021 6.99511 13.518C6.99511 13.6799 6.99511 13.8958 7.04942 14.1117C7.42893 16.4327 10.1403 17.6203 12.3092 16.6486L14.5868 15.6231C16.7559 14.6515 19.1959 14.6515 21.365 15.6231L23.6426 16.6486C25.8117 17.6203 28.5229 16.4327 28.9024 14.1117C28.9565 13.9499 28.9565 13.7339 28.9565 13.518C28.9565 13.3562 28.9565 13.1403 28.9024 12.9243Z" fill="#FD6262"/>
    <path d="M5.31432 6.60903L7.59188 5.58352C9.76099 4.61189 12.201 4.61189 14.3701 5.58352L16.6476 6.60903C18.8168 7.58066 21.528 6.39312 21.9075 4.07209C21.9616 3.91025 21.9616 3.69433 21.9616 3.47841C21.9616 3.31657 21.9616 3.10065 21.9075 2.88473C21.528 0.563711 18.8166 -0.623833 16.6476 0.347794L14.3701 1.37331C12.201 2.34494 9.76099 2.34494 7.59188 1.37331L5.31432 0.347794C3.14521 -0.623833 0.434004 0.509641 0.0545005 2.88473C0.000181947 3.04658 0.000181983 3.2625 0.000181983 3.47841C0.000181983 3.64044 0.000181947 3.85618 0.0545005 4.07209C0.434004 6.39312 3.14521 7.58066 5.31432 6.60903Z" fill="#FD6262"/>
    <path d="M16.6475 20.3192L14.3699 21.3448C12.2008 22.3164 9.76081 22.3164 7.5917 21.3448L5.31414 20.3192C3.14503 19.3476 0.433822 20.5352 0.0543185 22.8562C-3.49853e-08 23.018 0 23.2339 0 23.4499C0 23.6119 -3.49853e-08 23.8276 0.0543185 24.0435C0.433822 26.3646 3.14521 27.5521 5.31414 26.5805L7.5917 25.555C9.76081 24.5833 12.2008 24.5833 14.3699 25.555L16.6475 26.5805C18.8166 27.5521 21.5278 26.3646 21.9073 24.0435C21.9614 23.8815 21.9614 23.6658 21.9614 23.4499C21.9614 23.288 21.9614 23.0721 21.9073 22.8562C21.5278 20.535 18.8164 19.3476 16.6475 20.3192Z" fill="#FD6262"/>
    <path d="M41.8226 21.9881C40.4718 21.9881 39.2963 21.7782 38.2963 21.3584C37.3139 20.9385 36.5507 20.3437 36.0069 19.574C35.4805 18.8043 35.2174 17.9034 35.2174 16.8713V16.1103C35.2174 15.9354 35.3051 15.8479 35.4805 15.8479H37.4016C37.577 15.8479 37.6647 15.9354 37.6647 16.1103V16.7401C37.6647 17.6323 38.0507 18.367 38.8226 18.9443C39.5946 19.5215 40.656 19.8102 42.0068 19.8102C43.2174 19.8102 44.1296 19.5565 44.7437 19.0492C45.3577 18.5419 45.6647 17.8772 45.6647 17.055C45.6647 16.5127 45.5068 16.0491 45.191 15.6642C44.8753 15.2794 44.4103 14.9295 43.7963 14.6146C43.1998 14.2823 42.3226 13.8887 41.1647 13.4338C39.884 12.944 38.8665 12.4979 38.1121 12.0956C37.3753 11.6932 36.7612 11.1684 36.27 10.5212C35.7788 9.85642 35.5332 9.02548 35.5332 8.02835C35.5332 6.52392 36.0683 5.34311 37.1384 4.48593C38.2262 3.62875 39.6911 3.20016 41.5332 3.20016C42.8314 3.20016 43.9717 3.41883 44.9542 3.85616C45.9367 4.2935 46.691 4.90577 47.2174 5.69298C47.7612 6.48018 48.0331 7.38984 48.0331 8.42196V8.94676C48.0331 9.12169 47.9454 9.20916 47.77 9.20916H45.7963C45.6209 9.20916 45.5331 9.12169 45.5331 8.94676V8.55316C45.5331 7.6435 45.1647 6.89128 44.4279 6.2965C43.7086 5.68423 42.7086 5.3781 41.4279 5.3781C40.3402 5.3781 39.4981 5.60551 38.9016 6.06034C38.3051 6.49768 38.0069 7.13619 38.0069 7.97587C38.0069 8.55316 38.156 9.02548 38.4542 9.39284C38.7525 9.7602 39.1911 10.0926 39.77 10.39C40.3665 10.6699 41.27 11.0372 42.4805 11.4921C43.7261 11.9819 44.7349 12.4367 45.5068 12.8565C46.2788 13.2589 46.9191 13.8012 47.4279 14.4834C47.9366 15.1482 48.191 15.9791 48.191 16.9763C48.191 18.5157 47.6209 19.7402 46.4805 20.6499C45.3577 21.542 43.8051 21.9881 41.8226 21.9881Z" fill="#FD6262"/>
    <path d="M50.8987 27C50.7759 27 50.7145 26.9125 50.7145 26.7376V25.1894C50.7145 25.0145 50.8022 24.927 50.9776 24.927H51.0302C51.732 24.9095 52.2846 24.8221 52.6881 24.6646C53.0916 24.5072 53.425 24.2098 53.6881 23.7725C53.9513 23.3526 54.2057 22.7141 54.4513 21.8569C54.4688 21.8394 54.4688 21.8132 54.4513 21.7782C54.4513 21.7257 54.4513 21.6995 54.4513 21.6995L50.0566 8.7106L50.0303 8.60564C50.0303 8.48318 50.1092 8.42196 50.2671 8.42196H52.3987C52.5566 8.42196 52.6618 8.49193 52.7145 8.63188L55.6881 18.5244C55.7057 18.5594 55.732 18.5769 55.7671 18.5769C55.8022 18.5769 55.8285 18.5594 55.846 18.5244L58.7934 8.63188C58.846 8.49193 58.9513 8.42196 59.1092 8.42196H61.1881C61.3811 8.42196 61.4513 8.51817 61.3986 8.7106L56.6092 22.6966C56.2057 23.9037 55.8022 24.7958 55.3987 25.3731C54.9951 25.9679 54.4688 26.3877 53.8197 26.6326C53.1706 26.8775 52.2583 27 51.0829 27H50.8987Z" fill="#FD6262"/>
    <path d="M69.7824 8.23827C71.221 8.23827 72.3614 8.65812 73.2035 9.4978C74.0456 10.32 74.4666 11.4396 74.4666 12.8565V21.5158C74.4666 21.6907 74.3789 21.7782 74.2035 21.7782H72.2035C72.0281 21.7782 71.9403 21.6907 71.9403 21.5158V13.3551C71.9403 12.4804 71.6859 11.772 71.1772 11.2297C70.6684 10.6874 69.993 10.4162 69.1509 10.4162C68.3263 10.4162 67.6509 10.6874 67.1246 11.2297C66.5982 11.772 66.3351 12.4717 66.3351 13.3289V21.5158C66.3351 21.6907 66.2474 21.7782 66.0719 21.7782H64.0719C63.8965 21.7782 63.8088 21.6907 63.8088 21.5158V8.68436C63.8088 8.50942 63.8965 8.42196 64.0719 8.42196H66.0719C66.2474 8.42196 66.3351 8.50942 66.3351 8.68436V9.629C66.3351 9.66399 66.3439 9.69023 66.3614 9.70772C66.3965 9.72522 66.4228 9.71647 66.4404 9.68148C67.1947 8.71934 68.3088 8.23827 69.7824 8.23827Z" fill="#FD6262"/>
    <path d="M88.7596 13.4338C88.8297 14.1511 88.8561 14.9558 88.8385 15.8479C88.8385 16.0229 88.7508 16.1103 88.5754 16.1103H80.1806C80.1105 16.1103 80.0754 16.1453 80.0754 16.2153C80.0754 16.8101 80.128 17.2649 80.2333 17.5798C80.4263 18.2795 80.8122 18.8306 81.3912 19.2329C81.9877 19.6178 82.7333 19.8102 83.628 19.8102C84.9262 19.8102 85.9262 19.2766 86.628 18.2095C86.7157 18.0346 86.8297 18.0084 86.9701 18.1308L88.4701 19.1279C88.5929 19.2329 88.6192 19.3466 88.549 19.4691C88.0578 20.2563 87.3561 20.8773 86.4438 21.3321C85.549 21.787 84.5315 22.0144 83.3912 22.0144C82.1105 22.0144 81.0315 21.7345 80.1543 21.1747C79.2771 20.6149 78.6192 19.8189 78.1806 18.7868C77.7596 17.7547 77.5491 16.5039 77.5491 15.0345C77.5491 13.7575 77.6456 12.7866 77.8385 12.1218C78.1543 10.9148 78.7859 9.96138 79.7333 9.26164C80.6806 8.5619 81.8298 8.21203 83.1806 8.21203C84.9526 8.21203 86.2771 8.65812 87.1543 9.55028C88.0315 10.425 88.5666 11.7195 88.7596 13.4338ZM83.1806 10.39C82.4263 10.39 81.8034 10.5824 81.3122 10.9673C80.821 11.3346 80.4877 11.8332 80.3122 12.4629C80.1894 12.8478 80.1105 13.3376 80.0754 13.9324C80.0754 14.0024 80.1105 14.0374 80.1806 14.0374H86.2069C86.2771 14.0374 86.3122 14.0024 86.3122 13.9324C86.2771 13.3551 86.2245 12.9265 86.1543 12.6466C85.9789 11.9644 85.628 11.4221 85.1017 11.0197C84.5929 10.5999 83.9526 10.39 83.1806 10.39Z" fill="#FD6262"/>
    <path d="M97.8946 8.29076C98.456 8.29076 98.9648 8.40446 99.4209 8.63188C99.5437 8.68436 99.5876 8.78932 99.5525 8.94676L99.1314 10.9148C99.1139 11.0722 99.0086 11.1247 98.8157 11.0722C98.5174 10.9498 98.1665 10.8885 97.763 10.8885L97.3946 10.9148C96.5701 10.9498 95.8858 11.2384 95.342 11.7807C94.8157 12.3055 94.5525 12.9965 94.5525 13.8537V21.5158C94.5525 21.6907 94.4648 21.7782 94.2894 21.7782H92.2894C92.1139 21.7782 92.0262 21.6907 92.0262 21.5158V8.68436C92.0262 8.50942 92.1139 8.42196 92.2894 8.42196H94.2894C94.4648 8.42196 94.5525 8.50942 94.5525 8.68436V10.0751C94.5525 10.1276 94.5613 10.1626 94.5788 10.18C94.6139 10.18 94.6402 10.1626 94.6578 10.1276C95.4472 8.90303 96.5262 8.29076 97.8946 8.29076Z" fill="#FD6262"/>
    <path d="M109.617 8.68436C109.617 8.50942 109.705 8.42196 109.881 8.42196H111.881C112.056 8.42196 112.144 8.50942 112.144 8.68436V21.096C112.144 23.2127 111.538 24.7259 110.328 25.6355C109.135 26.5452 107.53 27 105.512 27C105.231 27 104.793 26.9825 104.196 26.9475C104.021 26.93 103.933 26.8338 103.933 26.6589L104.012 24.8483C104.012 24.7783 104.038 24.7171 104.091 24.6646C104.144 24.6121 104.214 24.5947 104.302 24.6121C104.547 24.6296 104.907 24.6384 105.381 24.6384C106.872 24.6384 107.951 24.3585 108.617 23.7987C109.284 23.2564 109.617 22.3292 109.617 21.0172V20.5449C109.617 20.5099 109.6 20.4837 109.565 20.4662C109.547 20.4487 109.521 20.4574 109.486 20.4924C108.749 21.3496 107.67 21.7782 106.249 21.7782C105.109 21.7782 104.074 21.4808 103.144 20.886C102.231 20.2913 101.6 19.4166 101.249 18.262C101.021 17.4923 100.907 16.4252 100.907 15.0607C100.907 13.6088 101.038 12.4892 101.302 11.702C101.635 10.6524 102.223 9.81268 103.065 9.18292C103.924 8.53566 104.933 8.21203 106.091 8.21203C107.53 8.21203 108.661 8.64937 109.486 9.52404C109.521 9.55903 109.547 9.57652 109.565 9.57652C109.6 9.55903 109.617 9.53279 109.617 9.4978V8.68436ZM109.46 17.5011C109.512 17.2212 109.547 16.9238 109.565 16.6089C109.6 16.294 109.617 15.7692 109.617 15.0345C109.617 14.2998 109.6 13.7837 109.565 13.4863C109.547 13.1714 109.503 12.874 109.433 12.5941C109.293 11.9469 108.977 11.4221 108.486 11.0197C107.995 10.5999 107.381 10.39 106.644 10.39C105.907 10.39 105.293 10.5999 104.802 11.0197C104.31 11.4221 103.96 11.9469 103.749 12.5941C103.556 13.1189 103.46 13.9324 103.46 15.0345C103.46 16.2415 103.547 17.0637 103.723 17.5011C103.898 18.1483 104.24 18.6819 104.749 19.1017C105.275 19.5041 105.907 19.7052 106.644 19.7052C107.416 19.7052 108.038 19.5041 108.512 19.1017C109.003 18.6819 109.319 18.1483 109.46 17.5011Z" fill="#FD6262"/>
    <path d="M115.274 27C115.152 27 115.09 26.9125 115.09 26.7376V25.1894C115.09 25.0145 115.178 24.927 115.353 24.927H115.406C116.108 24.9095 116.66 24.8221 117.064 24.6646C117.467 24.5072 117.801 24.2098 118.064 23.7725C118.327 23.3526 118.581 22.7141 118.827 21.8569C118.845 21.8394 118.845 21.8132 118.827 21.7782C118.827 21.7257 118.827 21.6995 118.827 21.6995L114.432 8.7106L114.406 8.60564C114.406 8.48318 114.485 8.42196 114.643 8.42196H116.774C116.932 8.42196 117.038 8.49193 117.09 8.63188L120.064 18.5244C120.081 18.5594 120.108 18.5769 120.143 18.5769C120.178 18.5769 120.204 18.5594 120.222 18.5244L123.169 8.63188C123.222 8.49193 123.327 8.42196 123.485 8.42196H125.564C125.757 8.42196 125.827 8.51817 125.774 8.7106L120.985 22.6966C120.581 23.9037 120.178 24.7958 119.774 25.3731C119.371 25.9679 118.845 26.3877 118.196 26.6326C117.546 26.8775 116.634 27 115.459 27H115.274Z" fill="#FD6262"/>
    <path d="M132.047 21.9356C130.994 21.9356 130.065 21.7782 129.258 21.4633C128.468 21.1484 127.854 20.7199 127.415 20.1776C126.977 19.6178 126.758 19.0055 126.758 18.3407V18.0521C126.758 17.8772 126.845 17.7897 127.021 17.7897H128.915C129.091 17.7897 129.179 17.8772 129.179 18.0521V18.1833C129.179 18.6731 129.442 19.1017 129.968 19.4691C130.512 19.8364 131.196 20.0201 132.021 20.0201C132.81 20.0201 133.451 19.8539 133.942 19.5216C134.433 19.1717 134.679 18.7343 134.679 18.2095C134.679 17.7022 134.451 17.3261 133.994 17.0812C133.538 16.8188 132.801 16.5477 131.784 16.2678C130.784 15.9879 129.942 15.708 129.258 15.4281C128.591 15.1307 128.021 14.7196 127.547 14.1948C127.091 13.6525 126.863 12.9615 126.863 12.1218C126.863 10.9498 127.319 10.0226 128.231 9.34036C129.161 8.64062 130.389 8.29076 131.915 8.29076C132.933 8.29076 133.828 8.45694 134.6 8.78932C135.389 9.1042 135.994 9.55028 136.415 10.1276C136.837 10.7049 137.047 11.3521 137.047 12.0693V12.1481C137.047 12.323 136.959 12.4105 136.784 12.4105H134.942C134.766 12.4105 134.679 12.323 134.679 12.1481V12.0693C134.679 11.562 134.424 11.1422 133.915 10.8098C133.424 10.4599 132.749 10.285 131.889 10.285C131.117 10.285 130.486 10.4337 129.994 10.7311C129.521 11.0285 129.284 11.4308 129.284 11.9381C129.284 12.4454 129.512 12.8303 129.968 13.0927C130.442 13.3551 131.196 13.635 132.231 13.9324C133.249 14.2123 134.091 14.4922 134.758 14.7721C135.442 15.0345 136.021 15.4368 136.494 15.9791C136.968 16.5039 137.205 17.1949 137.205 18.0521C137.205 19.2417 136.731 20.1863 135.784 20.886C134.854 21.5858 133.608 21.9356 132.047 21.9356Z" fill="#FD6262"/>
    <path d="M140.739 21.7782C140.564 21.7782 140.476 21.6907 140.476 21.5158V3.67248C140.476 3.49755 140.564 3.41008 140.739 3.41008H142.739C142.915 3.41008 143.002 3.49755 143.002 3.67248V19.4953C143.002 19.5653 143.037 19.6003 143.108 19.6003H152.187C152.362 19.6003 152.45 19.6877 152.45 19.8627V21.5158C152.45 21.6907 152.362 21.7782 152.187 21.7782H140.739Z" fill="#FD6262"/>
    <path d="M160.063 8.21203C161.133 8.21203 162.063 8.40446 162.853 8.78932C163.66 9.15668 164.274 9.68148 164.695 10.3637C165.133 11.0285 165.353 11.7894 165.353 12.6466V21.5158C165.353 21.6907 165.265 21.7782 165.089 21.7782H163.089C162.914 21.7782 162.826 21.6907 162.826 21.5158V20.5712C162.826 20.4837 162.782 20.4662 162.695 20.5187C162.239 20.991 161.677 21.3584 161.011 21.6208C160.361 21.8657 159.633 21.9881 158.826 21.9881C157.528 21.9881 156.449 21.6645 155.59 21.0172C154.747 20.3525 154.326 19.3554 154.326 18.0259C154.326 16.6614 154.8 15.5943 155.747 14.8246C156.712 14.0374 158.054 13.6438 159.774 13.6438H162.721C162.791 13.6438 162.826 13.6088 162.826 13.5388V12.8303C162.826 12.0606 162.598 11.4658 162.142 11.046C161.704 10.6086 161.028 10.39 160.116 10.39C159.379 10.39 158.774 10.5387 158.3 10.8361C157.844 11.1159 157.563 11.5008 157.458 11.9906C157.405 12.1656 157.3 12.2443 157.142 12.2268L155.011 11.9381C154.835 11.9032 154.756 11.8332 154.774 11.7282C154.914 10.6961 155.467 9.85642 156.432 9.20916C157.397 8.54441 158.607 8.21203 160.063 8.21203ZM159.379 19.8627C160.309 19.8627 161.116 19.6178 161.8 19.1279C162.484 18.6381 162.826 18.0171 162.826 17.2649V15.7167C162.826 15.6467 162.791 15.6118 162.721 15.6118H160.247C159.212 15.6118 158.388 15.8129 157.774 16.2153C157.16 16.6176 156.853 17.1774 156.853 17.8947C156.853 18.5419 157.081 19.0317 157.537 19.3641C158.011 19.6965 158.625 19.8627 159.379 19.8627Z" fill="#FD6262"/>
    <path d="M179.579 11.8857C179.86 12.7778 180 13.8362 180 15.0607C180 16.3727 179.833 17.4923 179.5 18.4195C179.114 19.5565 178.5 20.44 177.658 21.0697C176.833 21.682 175.789 21.9881 174.526 21.9881C173.912 21.9881 173.342 21.8657 172.816 21.6208C172.29 21.3759 171.833 21.0347 171.447 20.5974C171.412 20.5624 171.377 20.5537 171.342 20.5712C171.325 20.5887 171.316 20.6149 171.316 20.6499V21.5158C171.316 21.6907 171.228 21.7782 171.053 21.7782H169.053C168.877 21.7782 168.79 21.6907 168.79 21.5158V3.67248C168.79 3.49755 168.877 3.41008 169.053 3.41008H171.053C171.228 3.41008 171.316 3.49755 171.316 3.67248V9.52404C171.316 9.55903 171.325 9.58527 171.342 9.60276C171.377 9.62026 171.412 9.61151 171.447 9.57652C171.833 9.13919 172.29 8.80681 172.816 8.5794C173.36 8.33449 173.93 8.21203 174.526 8.21203C175.842 8.21203 176.921 8.53566 177.763 9.18292C178.605 9.83018 179.211 10.7311 179.579 11.8857ZM176.789 18.367C177.228 17.5448 177.447 16.4602 177.447 15.1132C177.447 13.6787 177.167 12.5242 176.605 11.6495C176.096 10.8098 175.316 10.39 174.263 10.39C173.281 10.39 172.535 10.8361 172.026 11.7282C171.57 12.5329 171.342 13.6525 171.342 15.087C171.342 16.5214 171.553 17.6235 171.974 18.3932C172.5 19.3379 173.272 19.8102 174.289 19.8102C175.447 19.8102 176.281 19.3291 176.789 18.367Z" fill="#FD6262"/>
</svg>
